<?xml version="1.0" encoding="UTF-8" standalone="no"?>
<!-- Generator: Adobe Illustrator 16.0.0, SVG Export Plug-In . SVG Version: 6.00 Build 0)  -->

<svg
   xmlns:dc="http://purl.org/dc/elements/1.1/"
   xmlns:cc="http://creativecommons.org/ns#"
   xmlns:rdf="http://www.w3.org/1999/02/22-rdf-syntax-ns#"
   xmlns:svg="http://www.w3.org/2000/svg"
   xmlns="http://www.w3.org/2000/svg"
   xmlns:sodipodi="http://sodipodi.sourceforge.net/DTD/sodipodi-0.dtd"
   xmlns:inkscape="http://www.inkscape.org/namespaces/inkscape"
   version="1.1"
   id="Layer_1"
   x="0px"
   y="0px"
   width="566.94"
   height="227.20993"
   viewBox="0 0 566.94003 227.20994"
   enable-background="new 0 0 722.569 346.291"
   xml:space="preserve"
   sodipodi:docname="logo.svg"
   inkscape:version="0.92.5 (2060ec1f9f, 2020-04-08)"
   inkscape:export-filename="/home/barja/Documentos/GITHUB/qgispe-web/qgispe-web/static/img/qgispe.png"
   inkscape:export-xdpi="28"
   inkscape:export-ydpi="28"><metadata
   id="metadata834"><rdf:RDF><cc:Work
       rdf:about=""><dc:format>image/svg+xml</dc:format><dc:type
         rdf:resource="http://purl.org/dc/dcmitype/StillImage" /><dc:title /></cc:Work></rdf:RDF></metadata><defs
   id="defs832"><clipPath
     id="clipPath1059"
     clipPathUnits="userSpaceOnUse"><path
       inkscape:connector-curvature="0"
       id="path1061"
       d="m 27.687495,35.232388 -6.794088,-6.869248 -4.048341,-4.725544 2.938698,-4.317872 4.991981,0.484172 2.746539,2.397856 1.584849,2.428551 7.229991,7.29179 0.478628,-2.162215 L 37.906793,18.9345 35.146057,11.478405 18.579748,7.1643198 8.0462602,12.449367 4.5874451,20.470182 5.7246335,33.019463 22.454512,38.518227 25.489361,37.422989 Z"
       style="fill:none;stroke:#000000;stroke-width:0.26458299px;stroke-linecap:butt;stroke-linejoin:miter;stroke-opacity:1" /></clipPath></defs><sodipodi:namedview
   pagecolor="#ffffff"
   bordercolor="#666666"
   borderopacity="1"
   objecttolerance="10"
   gridtolerance="10"
   guidetolerance="10"
   inkscape:pageopacity="0"
   inkscape:pageshadow="2"
   inkscape:window-width="1366"
   inkscape:window-height="711"
   id="namedview830"
   showgrid="false"
   inkscape:measure-start="0,0"
   inkscape:measure-end="0,0"
   inkscape:pagecheckerboard="true"
   inkscape:zoom="1.1364974"
   inkscape:cx="264.26181"
   inkscape:cy="96.115729"
   inkscape:window-x="0"
   inkscape:window-y="27"
   inkscape:window-maximized="1"
   inkscape:current-layer="g827" />
<g
   id="g827"
   style="fill:#ffffff;fill-opacity:1"
   transform="translate(-78.569564,-57.299491)">
	<polygon
   points="195,202.37 195,180 216.513,180 198.306,162 176,162 176,183.433 "
   id="polygon815"
   style="fill:#808000;fill-opacity:1" />
	<path
   d="m 414.246,171.135 v 54.35 c -14.951,10.911 -37.782,18.386 -57.38,18.386 -42.833,0 -75.362,-31.113 -75.362,-72.129 0,-40.813 33.135,-71.725 77.182,-71.725 21.013,0 42.427,8.082 56.773,20.608 l -17.982,22.832 c -10.507,-9.698 -25.052,-15.76 -38.791,-15.76 -25.055,0 -44.451,19.194 -44.451,44.045 0,25.053 19.599,44.249 44.651,44.249 8.486,0 18.589,-3.031 27.681,-7.678 v -37.177 h 27.679 z"
   id="path817"
   inkscape:connector-curvature="0"
   style="fill:#808000;fill-opacity:1" />
	<path
   d="m 442.129,242.456 v -141.43 h 31.922 v 141.43 z"
   id="path819"
   inkscape:connector-curvature="0"
   style="fill:#808000;fill-opacity:1" />
	<path
   d="m 610.831,114.967 -12.324,26.467 c -14.951,-8.89 -32.731,-14.547 -44.045,-14.547 -10.708,0 -17.981,3.839 -17.981,11.517 0,26.064 75.362,11.517 75.16,62.431 0,27.68 -24.045,42.631 -55.36,42.631 -23.236,0 -46.471,-8.89 -62.431,-22.427 l 12.728,-26.063 c 14.548,12.932 35.155,21.215 50.106,21.215 13.134,0 21.013,-4.849 21.013,-13.537 0,-26.669 -75.362,-11.112 -75.362,-61.219 0,-25.659 22.023,-41.823 54.755,-41.823 19.8,-10e-4 39.599,6.061 53.741,15.355 z"
   id="path821"
   inkscape:connector-curvature="0"
   style="fill:#808000;fill-opacity:1" />
	<path
   style="fill:#808000;fill-opacity:1"
   d="m 204,189 v 22.33984 L 240.78125,248 H 264 V 226.94531 L 225.61719,189 Z"
   id="polygon823"
   inkscape:connector-curvature="0"
   sodipodi:nodetypes="ccccccc" />
	<path
   d="m 198.052,216.864 c -3.259,0.75 -6.648,1.157 -10.144,1.157 -25.005,0 -46.271,-20.562 -46.271,-47.222 0,-26.66 21.032,-46.769 46.271,-46.769 25.239,0 45.336,20.108 45.336,46.769 0,4.336 -0.54,8.508 -1.539,12.46 l 23.144,23.14 c 5.967,-10.455 9.305,-22.611 9.305,-35.778 0,-41.09 -32.791,-71.856 -76.714,-71.856 -43.722,0 -76.512,30.564 -76.512,71.856 0,41.494 32.791,72.666 76.512,72.666 11.287,0 21.835,-2.076 31.284,-5.854 z"
   id="path825"
   inkscape:connector-curvature="0"
   style="fill:#808000;fill-opacity:1" />
<text
   xml:space="preserve"
   style="font-style:normal;font-weight:normal;font-size:26.26104355px;line-height:1.25;font-family:sans-serif;letter-spacing:0px;word-spacing:0px;fill:#ffffff;fill-opacity:1;stroke:#ffffff;stroke-width:1.31305218;stroke-miterlimit:4;stroke-dasharray:none;stroke-opacity:1"
   x="304.11603"
   y="9.5232525"
   id="text15"
   transform="matrix(0.73036408,0.68411713,-0.70370658,0.71003255,0,0)"><tspan
     sodipodi:role="line"
     id="tspan13"
     x="304.11603"
     y="9.5232525"
     style="font-style:normal;font-variant:normal;font-weight:bold;font-stretch:normal;font-family:Ubuntu;-inkscape-font-specification:'Ubuntu Bold';fill:#ffffff;stroke:#ffffff;stroke-width:1.31305218;stroke-miterlimit:4;stroke-dasharray:none;stroke-opacity:1">PE</tspan></text>
</g>
</svg>